<?xml version="1.0" standalone="no"?>
<!DOCTYPE svg PUBLIC "-//W3C//DTD SVG 20010904//EN"
 "http://www.w3.org/TR/2001/REC-SVG-20010904/DTD/svg10.dtd">
<svg version="1.0" xmlns="http://www.w3.org/2000/svg"
 width="300.000000pt" height="300.000000pt" viewBox="0 0 300.000000 300.000000"
 preserveAspectRatio="xMidYMid meet">
<metadata>
Created by potrace 1.10, written by Peter Selinger 2001-2011
</metadata>
<g transform="translate(0.000000,300.000000) scale(0.050000,-0.050000)"
fill="#1d3947" stroke="none">
<path d="M2460 5040 c-804 -205 -1303 -1069 -1075 -1860 48 -167 331 -236 574
-141 89 36 101 37 117 8 25 -44 95 -26 89 23 -5 33 28 53 195 117 l200 78 35
-44 c54 -66 114 -37 76 37 l-28 54 212 94 c210 94 226 96 250 28 16 -44 77 15
71 69 -7 65 348 293 396 254 28 -21 77 32 59 62 -8 12 -4 21 8 21 32 0 181
141 181 172 0 41 -34 34 -106 -19 -111 -82 -108 -83 -183 66 l-71 140 85 54
c47 29 136 88 199 130 l113 76 43 -69 c53 -85 130 -111 170 -57 47 61 38 71
-192 217 -235 149 -300 209 -285 266 11 40 -91 96 -323 179 -153 55 -662 83
-810 45z m483 -141 c-57 -47 -68 -47 -183 1 l-90 38 160 0 160 1 -47 -40z
m-298 -53 c63 -18 115 -38 115 -46 0 -15 -200 -128 -207 -117 -3 4 -33 43 -66
87 -96 128 -97 131 -23 119 36 -6 118 -25 181 -43z m655 0 c169 -66 169 -57
12 -163 l-128 -87 -110 87 c-135 106 -134 103 -29 166 104 62 87 62 255 -3z
m-841 -199 c1 -17 -170 -107 -204 -107 -13 0 19 254 35 280 17 28 168 -127
169 -173z m-287 98 c-6 -30 -13 -98 -15 -151 -3 -52 -14 -102 -26 -111 -43
-31 -192 -89 -203 -78 -26 26 202 395 245 395 6 0 5 -25 -1 -55z m805 -98 c58
-51 98 -100 89 -108 -25 -24 -309 -183 -314 -175 -32 44 -132 220 -132 231 1
13 213 140 240 144 6 0 58 -41 117 -92z m783 -128 c0 -20 -337 -251 -346 -237
-3 4 -45 61 -94 125 -71 94 -82 120 -59 134 16 9 83 52 148 96 l119 79 116
-89 c64 -49 116 -98 116 -108z m-1924 -54 c-52 -140 -48 -135 -145 -176 l-79
-33 58 77 c90 121 192 247 201 247 4 0 -12 -52 -35 -115z m761 -23 c51 -95 58
-121 36 -139 -31 -26 -336 -167 -343 -159 -3 3 -14 67 -24 142 l-19 137 131
67 c166 85 146 90 219 -48z m651 -90 c40 -60 72 -113 72 -119 0 -13 -350 -213
-373 -213 -25 0 -155 267 -134 275 9 3 89 45 177 93 184 101 165 104 258 -36z
m-1079 -67 c8 -52 19 -115 25 -140 9 -39 -6 -52 -118 -102 -220 -99 -216 -99
-216 1 1 203 13 226 147 282 157 66 146 69 162 -41z m619 -182 l69 -137 -185
-91 c-260 -129 -249 -130 -309 34 -28 76 -43 142 -32 146 10 5 96 47 189 94
94 47 177 87 185 89 8 1 46 -60 83 -135z m-1024 -42 l-7 -158 -150 -51 -149
-50 12 44 c69 262 74 270 190 323 60 28 110 50 110 51 0 0 -3 -71 -6 -159z
m1695 -54 c64 -129 65 -135 29 -162 -58 -42 -369 -210 -376 -202 -15 19 -132
284 -127 287 28 24 370 209 386 209 12 1 51 -59 88 -132z m-1176 -147 c24 -76
41 -142 36 -146 -16 -14 -363 -154 -380 -154 -22 0 -65 197 -56 258 6 39 37
61 157 113 199 86 191 89 243 -71z m678 -105 c87 -183 101 -162 -211 -304
l-150 -69 -58 115 c-91 179 -96 169 128 281 248 123 221 125 291 -23z m-1134
-187 c16 -49 -20 -69 -230 -127 l-139 -39 6 154 6 154 150 52 150 53 22 -103
c12 -56 27 -121 35 -144z m668 -212 c-5 -17 -258 -129 -374 -166 -38 -12 -186
271 -149 285 10 3 104 41 208 83 l190 76 66 -129 c36 -70 63 -138 59 -149z
m-561 -57 l64 -141 -53 -20 c-73 -28 -329 -98 -357 -98 -21 0 -108 198 -108
247 0 17 296 135 380 151 6 1 39 -62 74 -139z"/>
<path d="M4798 4940 c-40 -21 -118 -88 -174 -150 -115 -126 -250 -150 -229
-41 12 64 -41 78 -106 27 -53 -42 -55 -42 -226 -8 -371 74 -438 48 -218 -86
80 -49 205 -128 279 -176 l135 -88 -85 -109 -84 -109 -124 12 c-189 17 -246
-29 -112 -90 53 -24 110 -50 126 -58 17 -9 58 -71 91 -140 70 -139 107 -137
111 5 5 144 24 186 124 261 125 95 124 96 264 -187 162 -329 203 -323 179 23
l-14 196 56 59 c66 69 30 158 -40 100 -92 -77 -35 187 61 280 214 208 205 395
-14 279z"/>
<path d="M1278 4222 c-680 -614 -546 -1404 266 -1570 686 -141 1663 291 2243
992 251 303 222 384 -46 131 -572 -539 -1323 -877 -1941 -874 -848 3 -1079
657 -467 1319 142 153 115 154 -55 2z"/>
<path d="M4287 4064 c-29 -19 -48 -206 -46 -457 l2 -202 -63 -45 c-75 -54 -70
-59 -92 98 -32 229 -87 170 -88 -93 l0 -144 -75 -48 c-141 -88 -168 -99 -161
-66 11 55 -32 39 -65 -24 -18 -34 -88 -103 -156 -154 -193 -145 -184 -173 21
-68 l120 60 -13 -105 c-18 -143 -60 -266 -130 -385 l-59 -100 -21 56 c-11 31
-21 71 -22 89 -3 144 -72 325 -108 285 -35 -39 -35 -48 -4 -206 34 -169 41
-255 22 -255 -39 0 -158 69 -254 147 -110 89 -175 105 -175 41 0 -25 124 -133
241 -210 70 -47 -155 -12 -347 53 -103 34 -151 42 -187 28 -93 -36 -21 -79
233 -142 l150 -37 -210 9 c-120 5 -261 24 -330 45 -125 38 -299 24 -284 -23
11 -35 313 -127 499 -152 710 -94 1412 390 1627 1121 69 238 50 932 -25 884z
m-139 -978 c-48 -123 -143 -306 -158 -306 -3 0 20 74 52 165 32 91 58 184 58
208 0 42 84 118 96 86 4 -9 -18 -78 -48 -153z m-193 -119 c-94 -272 -306 -583
-234 -343 21 69 43 177 50 239 11 109 15 115 115 182 129 86 127 88 69 -78z"/>
<path d="M1159 3808 c-74 -196 -77 -447 -7 -542 71 -94 82 -72 43 78 -39 151
-37 355 5 465 12 34 12 51 -1 51 -11 0 -29 -23 -40 -52z"/>
<path d="M3857 3553 c-721 -916 -2233 -1349 -2843 -814 -132 116 -107 45 30
-86 153 -147 391 -274 606 -324 711 -167 1848 452 2282 1241 101 183 78 178
-75 -17z"/>
<path d="M2493 1447 c-26 -27 -12 -106 23 -125 73 -39 140 54 80 114 -26 26
-81 32 -103 11z"/>
<path d="M3430 1431 c-261 -95 -301 -465 -65 -612 138 -87 503 6 375 95 -30
21 -49 22 -80 6 -78 -42 -221 -17 -268 47 -142 190 47 447 251 342 59 -31 114
-5 116 55 3 60 -223 105 -329 67z"/>
<path d="M1560 1390 c0 -47 7 -50 100 -50 l100 0 0 -280 0 -280 70 0 70 0 0
280 0 280 90 0 c83 0 90 4 90 50 l0 50 -260 0 -260 0 0 -50z"/>
<path d="M2140 1020 l0 -240 70 0 70 0 0 158 c0 167 13 193 100 205 81 11 84
117 4 117 -33 0 -71 -14 -85 -31 -24 -29 -28 -29 -43 0 -10 17 -40 31 -67 31
l-49 0 0 -240z"/>
<path d="M2480 1020 l0 -240 65 0 65 0 -6 240 -6 240 -59 0 -59 0 0 -240z"/>
<path d="M2720 940 l0 -320 60 0 c58 0 60 4 60 88 l0 87 85 -9 c159 -18 259
128 216 318 -32 142 -166 202 -277 125 -40 -28 -44 -28 -44 0 0 20 -18 31 -50
31 l-50 0 0 -320z m276 196 c74 -74 9 -264 -87 -253 -56 7 -59 12 -65 114 -8
144 73 218 152 139z"/>
<path d="M3906 1221 c-85 -52 -122 -168 -89 -280 67 -222 384 -221 444 1 61
230 -155 401 -355 279z m213 -100 c58 -108 14 -241 -79 -241 -75 0 -100 35
-100 140 0 134 124 204 179 101z"/>
</g>
</svg>
